<?xml version="1.0" encoding="utf-8"?>
<!-- Generator: Adobe Illustrator 21.1.0, SVG Export Plug-In . SVG Version: 6.00 Build 0)  -->
<svg version="1.1" id="Default" xmlns="http://www.w3.org/2000/svg" xmlns:xlink="http://www.w3.org/1999/xlink" x="0px" y="0px"
	 viewBox="0 0 1224.3 791.7" style="enable-background:new 0 0 1224.3 791.7;" xml:space="preserve">
<style type="text/css">
	.st0{fill:none;stroke:#070809;stroke-width:2.75;stroke-linecap:round;}
	.st1{fill:none;stroke:#070809;stroke-linecap:round;}
	.st2{fill:none;stroke:#070809;stroke-width:2;stroke-linecap:round;}
	.st3{fill:none;stroke:#070809;stroke-width:0.8;stroke-linecap:round;}
	.st4{fill:none;stroke:#070809;stroke-width:0.3509;stroke-linecap:round;}
</style>
<line class="st0" x1="882.7" y1="222.2" x2="818.6" y2="200"/>
<line class="st0" x1="818.6" y1="200" x2="808.3" y2="200.2"/>
<line class="st0" x1="882.7" y1="222.2" x2="799.2" y2="680"/>
<line class="st1" x1="818.6" y1="200" x2="711.9" y2="792.6"/>
<line class="st0" x1="808.3" y1="200.2" x2="701.8" y2="792.6"/>
<line class="st0" x1="1130.1" y1="792.6" x2="1224.3" y2="603"/>
<line class="st1" x1="1154.1" y1="792.6" x2="1224.3" y2="649.6"/>
<line class="st0" x1="1224.3" y1="778.2" x2="1217.5" y2="792.6"/>
<line class="st1" x1="1210.7" y1="418.7" x2="1064.4" y2="768.6"/>
<line class="st0" x1="1210.7" y1="418.7" x2="1193.7" y2="416.7"/>
<line class="st0" x1="1193.7" y1="416.7" x2="1059.5" y2="735.3"/>
<line class="st0" x1="1224.3" y1="435.5" x2="1210.7" y2="418.7"/>
<line class="st0" x1="1224.3" y1="524.8" x2="1115" y2="792.6"/>
<line class="st0" x1="943.7" y1="262.2" x2="956.7" y2="262.6"/>
<line class="st0" x1="1012" y1="292" x2="956.7" y2="262.6"/>
<line class="st0" x1="910" y1="683.6" x2="1012" y2="292"/>
<line class="st1" x1="956.7" y1="262.6" x2="842.1" y2="700.2"/>
<line class="st0" x1="943.7" y1="262.2" x2="827.7" y2="704.7"/>
<line class="st0" x1="1139.1" y1="368.7" x2="1092.2" y2="330.3"/>
<line class="st0" x1="1092.2" y1="330.3" x2="1077" y2="329.3"/>
<line class="st0" x1="1139.1" y1="368.7" x2="1019.8" y2="721.6"/>
<line class="st1" x1="1092.2" y1="330.3" x2="964.4" y2="702.4"/>
<line class="st0" x1="1077" y1="329.3" x2="948" y2="703.3"/>
<line class="st2" x1="799.2" y1="680" x2="762.6" y2="690.6"/>
<line class="st3" x1="762.6" y1="690.6" x2="799.2" y2="705"/>
<line class="st1" x1="799.2" y1="705" x2="830" y2="695.7"/>
<line class="st2" x1="805.2" y1="647.4" x2="839.6" y2="659.3"/>
<line class="st2" x1="724.4" y1="666.8" x2="711.3" y2="670.3"/>
<line class="st3" x1="711.3" y1="670.3" x2="723" y2="674.9"/>
<line class="st2" x1="711.3" y1="670.3" x2="710.8" y2="742.5"/>
<line class="st1" x1="797.5" y1="792.6" x2="799.2" y2="705"/>
<line class="st2" x1="762.6" y1="690.6" x2="761.1" y2="792.6"/>
<line class="st1" x1="973.6" y1="774" x2="1066.2" y2="737.6"/>
<line class="st2" x1="1054.4" y1="733.6" x2="1066.2" y2="737.6"/>
<line class="st2" x1="961.7" y1="769.3" x2="1054.4" y2="733.6"/>
<line class="st3" x1="961.7" y1="769.3" x2="973.6" y2="774"/>
<line class="st2" x1="1066.2" y1="737.6" x2="1063" y2="792.6"/>
<line class="st2" x1="960.7" y1="792.6" x2="961.7" y2="769.3"/>
<line class="st1" x1="972.7" y1="792.6" x2="973.6" y2="774"/>
<line class="st3" x1="918.1" y1="752" x2="940.7" y2="761"/>
<line class="st1" x1="940.7" y1="761" x2="1033.4" y2="726.3"/>
<line class="st2" x1="1010.8" y1="718.5" x2="1033.4" y2="726.3"/>
<line class="st2" x1="918.1" y1="752" x2="1010.8" y2="718.5"/>
<line class="st2" x1="1033.4" y1="726.3" x2="1032.6" y2="742"/>
<line class="st1" x1="939.4" y1="792.6" x2="940.7" y2="761"/>
<line class="st2" x1="916.6" y1="792.6" x2="918.1" y2="752"/>
<line class="st3" x1="865.1" y1="731.1" x2="901.5" y2="745.5"/>
<line class="st1" x1="901.5" y1="745.5" x2="994.2" y2="712.7"/>
<line class="st2" x1="957.6" y1="700.1" x2="994.2" y2="712.7"/>
<line class="st2" x1="865.1" y1="731.1" x2="957.6" y2="700.1"/>
<line class="st2" x1="994.2" y1="712.7" x2="993.6" y2="724.7"/>
<line class="st2" x1="863.3" y1="792.6" x2="865.1" y2="731.1"/>
<line class="st3" x1="811.2" y1="709.8" x2="850.8" y2="725.4"/>
<line class="st1" x1="850.8" y1="725.4" x2="943.2" y2="695.1"/>
<line class="st2" x1="903.2" y1="681.3" x2="943.2" y2="695.1"/>
<line class="st2" x1="811.2" y1="709.8" x2="903.2" y2="681.3"/>
<line class="st4" x1="943.2" y1="695.1" x2="942.8" y2="705"/>
<line class="st1" x1="848.9" y1="792.6" x2="850.8" y2="725.4"/>
<line class="st2" x1="809.4" y1="792.6" x2="811.2" y2="709.8"/>
<line class="st1" x1="899.9" y1="792.6" x2="901.5" y2="745.5"/>
<line class="st4" x1="809.8" y1="772.7" x2="804.6" y2="792.6"/>
</svg>
