<?xml version="1.0" encoding="utf-8"?>
<!-- Generator: Adobe Illustrator 21.1.0, SVG Export Plug-In . SVG Version: 6.00 Build 0)  -->
<svg version="1.1" id="Make2D::visible::lines::Default"
	 xmlns="http://www.w3.org/2000/svg" xmlns:xlink="http://www.w3.org/1999/xlink" x="0px" y="0px" viewBox="0 0 3000 2000"
	 style="enable-background:new 0 0 3000 2000;" xml:space="preserve">
<style type="text/css">
	.st0{fill:none;stroke:#000000;stroke-width:2;stroke-linecap:round;stroke-linejoin:round;}
	.st1{fill:none;stroke:#000000;stroke-width:3;stroke-linecap:round;stroke-linejoin:round;}
	.st2{fill:none;stroke:#000000;stroke-width:5;stroke-linecap:round;stroke-linejoin:round;}
</style>
<line class="st0" x1="2785.5" y1="1794.3" x2="2805.4" y2="1805.8"/>
<line class="st0" x1="2819.6" y1="1771.5" x2="2839.4" y2="1783"/>
<line class="st0" x1="2853.7" y1="1753.3" x2="2873.5" y2="1764.7"/>
<line class="st0" x1="2887.8" y1="1731.1" x2="2907.6" y2="1742.5"/>
<line class="st1" x1="2053.7" y1="1170.1" x2="2053.7" y2="1715.7"/>
<line class="st1" x1="2073.5" y1="1727.2" x2="2053.7" y2="1715.7"/>
<line class="st2" x1="2073.5" y1="1181.6" x2="2073.5" y2="1727.2"/>
<line class="st1" x1="2073.5" y1="1181.6" x2="2089" y2="1190.5"/>
<line class="st1" x1="2089" y1="1736.2" x2="2089" y2="1190.5"/>
<line class="st1" x1="2108.9" y1="1747.6" x2="2089" y2="1736.2"/>
<line class="st2" x1="2108.9" y1="1201.9" x2="2108.9" y2="1747.6"/>
<line class="st1" x1="2108.9" y1="1201.9" x2="2186.1" y2="1246.5"/>
<line class="st1" x1="2186.1" y1="1792.1" x2="2186.1" y2="1246.5"/>
<line class="st1" x1="2205.9" y1="1803.6" x2="2186.1" y2="1792.1"/>
<line class="st2" x1="2205.9" y1="1258" x2="2205.9" y2="1803.6"/>
<line class="st1" x1="2205.9" y1="1258" x2="2221.4" y2="1266.9"/>
<line class="st1" x1="2221.4" y1="1812.5" x2="2221.4" y2="1266.9"/>
<line class="st1" x1="2241.2" y1="1824" x2="2221.4" y2="1812.5"/>
<line class="st2" x1="2241.2" y1="1278.4" x2="2241.2" y2="1824"/>
<line class="st1" x1="2241.2" y1="1278.4" x2="2256.7" y2="1287.4"/>
<line class="st1" x1="2256.7" y1="1833" x2="2256.7" y2="1287.4"/>
<line class="st1" x1="2276.6" y1="1844.4" x2="2256.7" y2="1833"/>
<line class="st2" x1="2276.6" y1="1298.8" x2="2276.6" y2="1844.4"/>
<line class="st1" x1="2276.6" y1="1298.8" x2="2292.1" y2="1307.7"/>
<line class="st1" x1="2292.1" y1="1853.3" x2="2292.1" y2="1307.7"/>
<line class="st1" x1="2311.9" y1="1864.8" x2="2292.1" y2="1853.3"/>
<line class="st2" x1="2311.9" y1="1319.2" x2="2311.9" y2="1864.8"/>
<line class="st1" x1="2311.9" y1="1319.2" x2="2327.4" y2="1328.1"/>
<line class="st1" x1="2327.4" y1="1873.8" x2="2327.4" y2="1328.1"/>
<line class="st1" x1="2347.2" y1="1885.2" x2="2327.4" y2="1873.8"/>
<line class="st2" x1="2347.2" y1="1339.6" x2="2347.2" y2="1885.2"/>
<line class="st1" x1="2347.2" y1="1339.6" x2="2362.8" y2="1348.6"/>
<line class="st1" x1="2362.8" y1="1894.2" x2="2362.8" y2="1348.6"/>
<line class="st1" x1="2382.6" y1="1905.6" x2="2362.8" y2="1894.2"/>
<line class="st2" x1="2382.6" y1="1360" x2="2382.6" y2="1905.6"/>
<line class="st1" x1="2382.6" y1="1360" x2="2398.1" y2="1368.9"/>
<line class="st1" x1="2398.1" y1="1606.4" x2="2398.1" y2="1368.9"/>
<line class="st1" x1="2417.9" y1="1617.9" x2="2398.1" y2="1606.4"/>
<line class="st2" x1="2417.9" y1="1380.4" x2="2417.9" y2="1617.9"/>
<line class="st1" x1="2417.9" y1="1380.4" x2="2433.5" y2="1389.4"/>
<line class="st1" x1="2433.5" y1="1599.8" x2="2433.5" y2="1389.4"/>
<line class="st1" x1="2453.3" y1="1611.2" x2="2433.5" y2="1599.8"/>
<line class="st2" x1="2453.3" y1="1400.9" x2="2453.3" y2="1611.2"/>
<line class="st1" x1="2453.3" y1="1400.9" x2="2468.8" y2="1409.8"/>
<line class="st1" x1="2468.8" y1="1584.8" x2="2468.8" y2="1409.8"/>
<line class="st1" x1="2488.6" y1="1596.3" x2="2468.8" y2="1584.8"/>
<line class="st2" x1="2488.6" y1="1421.2" x2="2488.6" y2="1596.3"/>
<line class="st1" x1="2488.6" y1="1421.2" x2="2510.4" y2="1433.8"/>
<line class="st1" x1="2510.4" y1="1986.3" x2="2510.4" y2="1433.8"/>
<line class="st2" x1="2031.9" y1="1710.1" x2="2510.4" y2="1986.3"/>
<line class="st1" x1="2031.9" y1="1157.5" x2="2053.7" y2="1170.1"/>
<line class="st0" x1="2053.7" y1="1715.7" x2="2073.5" y2="1704.3"/>
<line class="st0" x1="2143" y1="1118.6" x2="2143" y2="1141.5"/>
<line class="st0" x1="2089" y1="1736.2" x2="2108.9" y2="1724.7"/>
<line class="st0" x1="2220.7" y1="1114.5" x2="2220.7" y2="1137.4"/>
<line class="st0" x1="2186.1" y1="1792.1" x2="2205.9" y2="1780.7"/>
<line class="st0" x1="2543.7" y1="1040" x2="2543.7" y2="1062.9"/>
<line class="st0" x1="2221.4" y1="1812.5" x2="2241.2" y2="1801.1"/>
<line class="st0" x1="2540.3" y1="1082.7" x2="2540.3" y2="1105.6"/>
<line class="st0" x1="2256.7" y1="1833" x2="2276.6" y2="1821.5"/>
<line class="st0" x1="2538.5" y1="1124.6" x2="2538.5" y2="1147.5"/>
<line class="st0" x1="2292.1" y1="1853.3" x2="2311.9" y2="1841.9"/>
<line class="st0" x1="2539.1" y1="1165.1" x2="2539.1" y2="1188"/>
<line class="st0" x1="2327.4" y1="1873.8" x2="2347.2" y2="1862.3"/>
<line class="st0" x1="2547.1" y1="1201.3" x2="2547.1" y2="1224.2"/>
<line class="st0" x1="2362.8" y1="1894.2" x2="2382.6" y2="1882.7"/>
<line class="st0" x1="2551.2" y1="1239.7" x2="2551.2" y2="1262.7"/>
<line class="st0" x1="2398.1" y1="1606.4" x2="2417.9" y2="1594.9"/>
<line class="st0" x1="2559.8" y1="1275.6" x2="2559.8" y2="1298.5"/>
<line class="st0" x1="2433.5" y1="1599.8" x2="2453.3" y2="1588.3"/>
<line class="st0" x1="2557.2" y1="1317.9" x2="2557.2" y2="1340.8"/>
<line class="st0" x1="2468.8" y1="1584.8" x2="2488.6" y2="1573.3"/>
<line class="st0" x1="2564.4" y1="1354.5" x2="2564.4" y2="1377.5"/>
<line class="st2" x1="2584.3" y1="1366" x2="2488.6" y2="1421.2"/>
<line class="st1" x1="2564.4" y1="1354.5" x2="2584.3" y2="1366"/>
<line class="st1" x1="2468.8" y1="1409.8" x2="2564.4" y2="1354.5"/>
<line class="st2" x1="2577.1" y1="1329.3" x2="2453.3" y2="1400.9"/>
<line class="st1" x1="2557.2" y1="1317.9" x2="2577.1" y2="1329.3"/>
<line class="st1" x1="2433.5" y1="1389.4" x2="2557.2" y2="1317.9"/>
<line class="st2" x1="2579.7" y1="1287" x2="2417.9" y2="1380.4"/>
<line class="st1" x1="2559.8" y1="1275.6" x2="2579.7" y2="1287"/>
<line class="st1" x1="2398.1" y1="1368.9" x2="2559.8" y2="1275.6"/>
<line class="st2" x1="2571.1" y1="1251.2" x2="2382.6" y2="1360"/>
<line class="st1" x1="2551.2" y1="1239.7" x2="2571.1" y2="1251.2"/>
<line class="st1" x1="2362.8" y1="1348.6" x2="2551.2" y2="1239.7"/>
<line class="st2" x1="2566.9" y1="1212.7" x2="2347.2" y2="1339.6"/>
<line class="st1" x1="2547.1" y1="1201.3" x2="2566.9" y2="1212.7"/>
<line class="st1" x1="2327.4" y1="1328.1" x2="2547.1" y2="1201.3"/>
<line class="st2" x1="2558.9" y1="1176.6" x2="2311.9" y2="1319.2"/>
<line class="st1" x1="2539.1" y1="1165.1" x2="2558.9" y2="1176.6"/>
<line class="st1" x1="2292.1" y1="1307.7" x2="2539.1" y2="1165.1"/>
<line class="st2" x1="2558.3" y1="1136.1" x2="2276.6" y2="1298.8"/>
<line class="st1" x1="2538.5" y1="1124.6" x2="2558.3" y2="1136.1"/>
<line class="st1" x1="2256.7" y1="1287.4" x2="2538.5" y2="1124.6"/>
<line class="st2" x1="2560.2" y1="1094.2" x2="2241.2" y2="1278.4"/>
<line class="st1" x1="2540.3" y1="1082.7" x2="2560.2" y2="1094.2"/>
<line class="st1" x1="2221.4" y1="1266.9" x2="2540.3" y2="1082.7"/>
<line class="st2" x1="2563.6" y1="1051.5" x2="2205.9" y2="1258"/>
<line class="st1" x1="2543.7" y1="1040" x2="2563.6" y2="1051.5"/>
<line class="st1" x1="2186.1" y1="1246.5" x2="2543.7" y2="1040"/>
<line class="st2" x1="2240.5" y1="1125.9" x2="2108.9" y2="1201.9"/>
<line class="st1" x1="2220.7" y1="1114.5" x2="2240.5" y2="1125.9"/>
<line class="st1" x1="2089" y1="1190.5" x2="2220.7" y2="1114.5"/>
<line class="st2" x1="2162.8" y1="1130" x2="2073.5" y2="1181.6"/>
<line class="st1" x1="2143" y1="1118.6" x2="2162.8" y2="1130"/>
<line class="st1" x1="2053.7" y1="1170.1" x2="2143" y2="1118.6"/>
<line class="st1" x1="2242.8" y1="1061" x2="2532.2" y2="893.9"/>
<line class="st2" x1="2262.6" y1="1072.4" x2="2242.8" y2="1061"/>
<line class="st2" x1="2552" y1="905.3" x2="2262.6" y2="1072.4"/>
<line class="st1" x1="2270.2" y1="1085.9" x2="2567.5" y2="914.3"/>
<line class="st2" x1="2290.1" y1="1097.4" x2="2270.2" y2="1085.9"/>
<line class="st2" x1="2587.4" y1="925.7" x2="2290.1" y2="1097.4"/>
<line class="st1" x1="2782.1" y1="1106.5" x2="2841.3" y2="1072.3"/>
<line class="st2" x1="2801.9" y1="1117.9" x2="2782.1" y2="1106.5"/>
<line class="st2" x1="2861.1" y1="1083.7" x2="2801.9" y2="1117.9"/>
<line class="st1" x1="2777.7" y1="1149.7" x2="2876.6" y2="1092.7"/>
<line class="st2" x1="2797.6" y1="1161.2" x2="2777.7" y2="1149.7"/>
<line class="st2" x1="2896.4" y1="1104.2" x2="2797.6" y2="1161.2"/>
<line class="st1" x1="2769.9" y1="1195.2" x2="2912" y2="1113.1"/>
<line class="st2" x1="2789.7" y1="1206.6" x2="2769.9" y2="1195.2"/>
<line class="st2" x1="2931.8" y1="1124.5" x2="2789.7" y2="1206.6"/>
<line class="st1" x1="2762.7" y1="1240.1" x2="2947.3" y2="1133.5"/>
<line class="st2" x1="2782.5" y1="1251.5" x2="2762.7" y2="1240.1"/>
<line class="st2" x1="2967.1" y1="1145" x2="2782.5" y2="1251.5"/>
<line class="st2" x1="2805.4" y1="1464" x2="2785.5" y2="1475.5"/>
<line class="st2" x1="2785.5" y1="1817.3" x2="2785.5" y2="1475.5"/>
<line class="st1" x1="2805.4" y1="1805.8" x2="2785.5" y2="1817.3"/>
<line class="st1" x1="2805.4" y1="1464" x2="2805.4" y2="1805.8"/>
<line class="st2" x1="2839.4" y1="1479" x2="2819.6" y2="1490.5"/>
<line class="st2" x1="2819.6" y1="1794.4" x2="2819.6" y2="1490.5"/>
<line class="st1" x1="2839.4" y1="1783" x2="2819.6" y2="1794.4"/>
<line class="st1" x1="2839.4" y1="1479" x2="2839.4" y2="1783"/>
<line class="st2" x1="2873.5" y1="1490" x2="2853.7" y2="1501.5"/>
<line class="st2" x1="2853.7" y1="1776.2" x2="2853.7" y2="1501.5"/>
<line class="st1" x1="2873.5" y1="1764.7" x2="2853.7" y2="1776.2"/>
<line class="st1" x1="2873.5" y1="1490" x2="2873.5" y2="1764.7"/>
<line class="st2" x1="2907.6" y1="1498.8" x2="2887.8" y2="1510.3"/>
<line class="st2" x1="2887.8" y1="1754" x2="2887.8" y2="1510.3"/>
<line class="st1" x1="2907.6" y1="1742.5" x2="2887.8" y2="1754"/>
<line class="st1" x1="2907.6" y1="1498.8" x2="2907.6" y2="1742.5"/>
<line class="st1" x1="2510.4" y1="1433.8" x2="2988.9" y2="1157.5"/>
<line class="st2" x1="2510.4" y1="1986.3" x2="2988.9" y2="1710.1"/>
<line class="st2" x1="2510.4" y1="881.3" x2="2031.9" y2="1157.5"/>
<line class="st2" x1="2031.9" y1="1710.1" x2="2031.9" y2="1157.5"/>
<line class="st2" x1="2947.3" y1="1133.5" x2="2931.8" y2="1124.5"/>
<line class="st2" x1="2912" y1="1113.1" x2="2912" y2="1136"/>
<line class="st2" x1="2912" y1="1113.1" x2="2896.4" y2="1104.2"/>
<line class="st2" x1="2876.6" y1="1092.7" x2="2876.6" y2="1115.6"/>
<line class="st2" x1="2876.6" y1="1092.7" x2="2861.1" y2="1083.7"/>
<line class="st2" x1="2841.3" y1="1072.3" x2="2841.3" y2="1095.2"/>
<line class="st2" x1="2841.3" y1="1072.3" x2="2587.4" y2="925.7"/>
<line class="st2" x1="2567.5" y1="914.3" x2="2567.5" y2="937.2"/>
<line class="st2" x1="2567.5" y1="914.3" x2="2552" y2="905.3"/>
<line class="st2" x1="2532.2" y1="893.9" x2="2532.2" y2="916.8"/>
<line class="st2" x1="2532.2" y1="893.9" x2="2510.4" y2="881.3"/>
<line class="st2" x1="2988.9" y1="1710.1" x2="2988.9" y2="1157.5"/>
<line class="st2" x1="2988.9" y1="1157.5" x2="2967.1" y2="1145"/>
<line class="st2" x1="2947.3" y1="1133.5" x2="2947.3" y2="1156.5"/>
</svg>
