<?xml version="1.0" encoding="utf-8"?>
<!-- Generator: Adobe Illustrator 21.1.0, SVG Export Plug-In . SVG Version: 6.00 Build 0)  -->
<svg version="1.1" id="Layer_1" xmlns="http://www.w3.org/2000/svg" xmlns:xlink="http://www.w3.org/1999/xlink" x="0px" y="0px"
	 viewBox="0 0 1224 792" style="enable-background:new 0 0 1224 792;" xml:space="preserve">
<style type="text/css">
	.st0{fill:none;stroke:#000000;stroke-width:2;stroke-linecap:round;stroke-linejoin:round;}
	.st1{fill:none;stroke:#000000;stroke-linecap:round;stroke-linejoin:round;}
</style>
<line class="st0" x1="1052.1" y1="735.4" x2="1047.7" y2="737.9"/>
<line class="st0" x1="1047.7" y1="737.9" x2="994.8" y2="716.8"/>
<line class="st0" x1="907.4" y1="682.1" x2="680.2" y2="591.7"/>
<line class="st0" x1="701.7" y1="552.3" x2="1052.1" y2="691.6"/>
<line class="st0" x1="757.2" y1="492.2" x2="757.2" y2="454.8"/>
<line class="st0" x1="684.5" y1="412.9" x2="757.2" y2="454.8"/>
<line class="st0" x1="1052.1" y1="735.4" x2="1052.1" y2="691.6"/>
<line class="st0" x1="680.2" y1="591.7" x2="680.2" y2="584.6"/>
<line class="st0" x1="680.2" y1="415.4" x2="684.5" y2="412.9"/>
<line class="st0" x1="1166.5" y1="669.3" x2="1162.1" y2="671.8"/>
<line class="st0" x1="1162.1" y1="671.8" x2="1084.3" y2="550.1"/>
<line class="st0" x1="1030.6" y1="465.9" x2="1014.6" y2="441"/>
<line class="st0" x1="999.2" y1="363.8" x2="994.8" y2="366.3"/>
<line class="st0" x1="994.8" y1="405" x2="994.8" y2="366.3"/>
<line class="st0" x1="1166.5" y1="669.3" x2="1166.5" y2="625.6"/>
<line class="st0" x1="752.9" y1="494.7" x2="680.2" y2="452.7"/>
<line class="st0" x1="757.2" y1="492.2" x2="752.9" y2="494.7"/>
<line class="st0" x1="1166.5" y1="625.6" x2="1109.3" y2="536"/>
<line class="st0" x1="1096.7" y1="516.4" x2="1086.4" y2="500.2"/>
<line class="st0" x1="1060.6" y1="459.9" x2="999.2" y2="363.8"/>
<line class="st0" x1="1104.9" y1="565.8" x2="1109.3" y2="563.3"/>
<line class="st0" x1="1109.3" y1="563.3" x2="1109.3" y2="526"/>
<line class="st0" x1="943.5" y1="442.7" x2="943.5" y2="405.3"/>
<line class="st0" x1="1020.1" y1="560.9" x2="1015.9" y2="563.3"/>
<line class="st0" x1="1015.6" y1="563.2" x2="880.4" y2="425.5"/>
<line class="st0" x1="947.8" y1="402.8" x2="943.5" y2="405.3"/>
<line class="st0" x1="1109.3" y1="526" x2="947.8" y2="402.8"/>
<line class="st0" x1="904.5" y1="405.8" x2="1020.1" y2="523.5"/>
<line class="st0" x1="1020.1" y1="560.9" x2="1020.1" y2="523.5"/>
<line class="st0" x1="943.5" y1="442.7" x2="1104.9" y2="565.8"/>
<line class="st0" x1="880.4" y1="425.5" x2="880.4" y2="394.6"/>
<line class="st0" x1="1077.2" y1="626" x2="1104.9" y2="654.2"/>
<line class="st0" x1="1104.9" y1="654.2" x2="1109.3" y2="651.7"/>
<line class="st0" x1="1056.5" y1="560.6" x2="1052.1" y2="563.1"/>
<line class="st0" x1="904.5" y1="369.8" x2="904.5" y2="407.1"/>
<line class="st0" x1="837.5" y1="361.8" x2="837.5" y2="324.5"/>
<line class="st0" x1="841.8" y1="322" x2="837.5" y2="324.5"/>
<line class="st0" x1="1109.3" y1="614.4" x2="1056.5" y2="560.6"/>
<line class="st0" x1="1109.3" y1="651.7" x2="1109.3" y2="614.4"/>
<line class="st0" x1="904.5" y1="369.8" x2="841.8" y2="322"/>
<line class="st0" x1="1052.1" y1="576.4" x2="1052.1" y2="563.1"/>
<line class="st0" x1="907.4" y1="684" x2="990.5" y2="720.3"/>
<line class="st0" x1="990.5" y1="720.3" x2="994.8" y2="717.8"/>
<line class="st0" x1="911.8" y1="644.1" x2="907.4" y2="646.6"/>
<line class="st0" x1="900.2" y1="409.6" x2="904.5" y2="407.1"/>
<line class="st0" x1="837.5" y1="361.8" x2="900.2" y2="409.6"/>
<line class="st0" x1="994.8" y1="680.4" x2="911.8" y2="644.1"/>
<line class="st0" x1="994.8" y1="717.8" x2="994.8" y2="680.4"/>
<line class="st0" x1="803.2" y1="523.7" x2="803.2" y2="486.4"/>
<line class="st0" x1="907.4" y1="684" x2="907.4" y2="646.6"/>
<line class="st0" x1="637.3" y1="565.9" x2="850.2" y2="659"/>
<line class="st0" x1="850.2" y1="659" x2="854.5" y2="656.4"/>
<line class="st0" x1="641.6" y1="526" x2="637.3" y2="528.5"/>
<line class="st0" x1="994.8" y1="629.4" x2="994.8" y2="592"/>
<line class="st0" x1="994.8" y1="592" x2="807.5" y2="483.9"/>
<line class="st0" x1="854.5" y1="619.1" x2="641.6" y2="526"/>
<line class="st0" x1="637.3" y1="565.9" x2="637.3" y2="528.5"/>
<line class="st0" x1="854.5" y1="656.4" x2="854.5" y2="619.1"/>
<line class="st0" x1="807.5" y1="483.9" x2="803.2" y2="486.4"/>
<line class="st0" x1="1195.1" y1="558" x2="1190.8" y2="560.5"/>
<line class="st0" x1="1190.8" y1="560.5" x2="1060.6" y2="485.3"/>
<line class="st0" x1="990.5" y1="631.9" x2="994.8" y2="629.4"/>
<line class="st0" x1="803.2" y1="523.7" x2="990.5" y2="631.9"/>
<line class="st0" x1="1060.6" y1="447.9" x2="1064.9" y2="445.4"/>
<line class="st0" x1="1064.9" y1="445.4" x2="1195.1" y2="520.6"/>
<line class="st0" x1="1195.1" y1="558" x2="1195.1" y2="520.6"/>
<line class="st0" x1="694.5" y1="488.7" x2="694.5" y2="461"/>
<line class="st0" x1="1060.6" y1="485.3" x2="1060.6" y2="447.9"/>
<line class="st0" x1="904.5" y1="395.2" x2="943.5" y2="417.7"/>
<line class="st0" x1="884.8" y1="341.5" x2="880.5" y2="344"/>
<line class="st0" x1="858.6" y1="513.4" x2="858.6" y2="506.5"/>
<line class="st0" x1="826.9" y1="495" x2="858.6" y2="506.5"/>
<line class="st0" x1="1014.6" y1="416.4" x2="884.8" y2="341.5"/>
<line class="st0" x1="1014.6" y1="453.8" x2="1014.6" y2="416.4"/>
<line class="st0" x1="880.5" y1="351.5" x2="880.5" y2="344"/>
<line class="st0" x1="757.2" y1="469.9" x2="803.2" y2="486.5"/>
<line class="st0" x1="1080.7" y1="624" x2="1076.3" y2="626.5"/>
<line class="st0" x1="1076.3" y1="626.5" x2="994.8" y2="597.1"/>
<line class="st0" x1="822.6" y1="534.9" x2="694.5" y2="488.7"/>
<line class="st0" x1="916.2" y1="546.6" x2="916.2" y2="531.4"/>
<line class="st0" x1="916.2" y1="531.4" x2="920.5" y2="528.9"/>
<line class="st0" x1="920.5" y1="528.9" x2="1080.7" y2="586.7"/>
<line class="st0" x1="1080.7" y1="624" x2="1080.7" y2="586.7"/>
<line class="st0" x1="680.2" y1="452.7" x2="680.2" y2="415.4"/>
<line class="st1" x1="1076.3" y1="626.5" x2="1076.3" y2="589.2"/>
<line class="st1" x1="1080.7" y1="586.7" x2="1076.3" y2="589.2"/>
<line class="st1" x1="1010.3" y1="418.9" x2="1010.3" y2="450.5"/>
<line class="st1" x1="1010.3" y1="418.9" x2="1014.6" y2="416.4"/>
<line class="st1" x1="858.6" y1="506.5" x2="854.3" y2="509"/>
<line class="st1" x1="854.3" y1="509" x2="845.7" y2="505.9"/>
<line class="st1" x1="803.2" y1="490.6" x2="757.2" y2="474"/>
<line class="st1" x1="880.5" y1="344" x2="1010.3" y2="418.9"/>
<line class="st1" x1="1190.8" y1="560.5" x2="1190.8" y2="523.1"/>
<line class="st1" x1="854.3" y1="510.9" x2="854.3" y2="509"/>
<line class="st1" x1="1190.8" y1="523.1" x2="1060.6" y2="447.9"/>
<line class="st1" x1="1195.1" y1="520.6" x2="1190.8" y2="523.1"/>
<line class="st1" x1="850.2" y1="659" x2="850.2" y2="621.6"/>
<line class="st1" x1="803.2" y1="486.4" x2="990.5" y2="594.5"/>
<line class="st1" x1="990.5" y1="594.5" x2="994.8" y2="592"/>
<line class="st1" x1="850.2" y1="621.6" x2="854.5" y2="619.1"/>
<line class="st1" x1="637.3" y1="528.5" x2="850.2" y2="621.6"/>
<line class="st1" x1="990.5" y1="631.9" x2="990.5" y2="594.5"/>
<line class="st1" x1="990.5" y1="720.3" x2="990.5" y2="682.9"/>
<line class="st1" x1="990.5" y1="682.9" x2="994.8" y2="680.4"/>
<line class="st1" x1="907.4" y1="646.6" x2="990.5" y2="682.9"/>
<line class="st1" x1="837.5" y1="324.5" x2="900.2" y2="372.3"/>
<line class="st1" x1="1104.9" y1="654.2" x2="1104.9" y2="616.9"/>
<line class="st1" x1="1104.9" y1="616.9" x2="1109.3" y2="614.4"/>
<line class="st1" x1="1080.7" y1="592.2" x2="1104.9" y2="616.9"/>
<line class="st1" x1="1052.1" y1="563.1" x2="1072.4" y2="583.7"/>
<line class="st1" x1="900.2" y1="372.3" x2="904.5" y2="369.8"/>
<line class="st1" x1="900.2" y1="372.3" x2="900.2" y2="409.6"/>
<line class="st1" x1="1015.7" y1="563.2" x2="1015.7" y2="526"/>
<line class="st1" x1="1015.7" y1="526" x2="901" y2="409.1"/>
<line class="st1" x1="943.5" y1="405.3" x2="1104.9" y2="528.4"/>
<line class="st1" x1="1020.1" y1="523.5" x2="1015.7" y2="526"/>
<line class="st1" x1="1060.6" y1="469.2" x2="994.8" y2="366.3"/>
<line class="st1" x1="1085.1" y1="507.5" x2="1077" y2="494.8"/>
<line class="st1" x1="1104.9" y1="528.4" x2="1109.3" y2="526"/>
<line class="st1" x1="1104.9" y1="565.8" x2="1104.9" y2="528.4"/>
<line class="st1" x1="1162.1" y1="628.1" x2="1109.3" y2="545.3"/>
<line class="st1" x1="1162.1" y1="671.8" x2="1162.1" y2="628.1"/>
<line class="st1" x1="1166.5" y1="625.6" x2="1162.1" y2="628.1"/>
<line class="st1" x1="757.2" y1="454.8" x2="752.9" y2="457.3"/>
<line class="st1" x1="752.9" y1="457.3" x2="680.2" y2="415.4"/>
<line class="st1" x1="1047.7" y1="737.9" x2="1047.7" y2="694.1"/>
<line class="st1" x1="1047.7" y1="694.1" x2="808.7" y2="599.1"/>
<line class="st1" x1="1052.1" y1="691.6" x2="1047.7" y2="694.1"/>
<line class="st1" x1="752.9" y1="494.7" x2="752.9" y2="457.3"/>
<line class="st1" x1="1076.3" y1="589.2" x2="916.2" y2="531.4"/>
</svg>
